<?xml version="1.0" encoding="utf-8" standalone="no"?>
<!DOCTYPE svg PUBLIC "-//W3C//DTD SVG 1.1//EN"
  "http://www.w3.org/Graphics/SVG/1.1/DTD/svg11.dtd">
<svg xmlns:xlink="http://www.w3.org/1999/xlink" width="447.84pt" height="205.2pt" viewBox="0 0 447.84 205.2" xmlns="http://www.w3.org/2000/svg" version="1.1">
 <metadata>
  <rdf:RDF xmlns:dc="http://purl.org/dc/elements/1.1/" xmlns:cc="http://creativecommons.org/ns#" xmlns:rdf="http://www.w3.org/1999/02/22-rdf-syntax-ns#">
   <cc:Work>
    <dc:type rdf:resource="http://purl.org/dc/dcmitype/StillImage"/>
    <dc:format>image/svg+xml</dc:format>
    <dc:creator>
     <cc:Agent>
      <dc:title>Scientific plotting script</dc:title>
     </cc:Agent>
    </dc:creator>
   </cc:Work>
  </rdf:RDF>
 </metadata>
 <defs>
  <style type="text/css">*{stroke-linejoin: round; stroke-linecap: butt}</style>
 </defs>
 <g id="figure_1">
  <g id="patch_1">
   <path d="M 0 205.2 
L 447.84 205.2 
L 447.84 0 
L 0 0 
z
" style="fill: #ffffff"/>
  </g>
  <g id="axes_1">
   <g id="patch_2">
    <path d="M 26.8704 135.432 
L 218.299523 135.432 
L 218.299523 24.624 
L 26.8704 24.624 
z
" style="fill: #ffffff"/>
   </g>
   <g id="PathCollection_1">
    <defs>
     <path id="m550569dded" d="M -2.645751 2.645751 
L 2.645751 2.645751 
L 2.645751 -2.645751 
L -2.645751 -2.645751 
z
" style="stroke: #0072b2"/>
    </defs>
    <g clip-path="url(#p86827bc8a8)">
     <use xlink:href="#m550569dded" x="66.687658" y="29.660727" style="fill: #0072b2; stroke: #0072b2"/>
    </g>
   </g>
   <g id="PathCollection_2">
    <defs>
     <path id="ma11e6b9dfb" d="M -2.828427 2.828427 
L 2.828427 -2.828427 
M -2.828427 -2.828427 
L 2.828427 2.828427 
" style="stroke: #d55e00; stroke-width: 1.5"/>
    </defs>
    <g clip-path="url(#p86827bc8a8)">
     <use xlink:href="#ma11e6b9dfb" x="209.876642" y="33.535133" style="fill: #d55e00; stroke: #d55e00; stroke-width: 1.5"/>
    </g>
   </g>
   <g id="PathCollection_3">
    <g clip-path="url(#p86827bc8a8)">
     <use xlink:href="#m550569dded" x="52.649522" y="49.032755" style="fill: #0072b2; stroke: #0072b2"/>
    </g>
   </g>
   <g id="PathCollection_4">
    <defs>
     <path id="m86203cf93a" d="M 0 2.828427 
C 0.750108 2.828427 1.469594 2.530406 2 2 
C 2.530406 1.469594 2.828427 0.750108 2.828427 0 
C 2.828427 -0.750108 2.530406 -1.469594 2 -2 
C 1.469594 -2.530406 0.750108 -2.828427 0 -2.828427 
C -0.750108 -2.828427 -1.469594 -2.530406 -2 -2 
C -2.530406 -1.469594 -2.828427 -0.750108 -2.828427 0 
C -2.828427 0.750108 -2.530406 1.469594 -2 2 
C -1.469594 2.530406 -0.750108 2.828427 0 2.828427 
z
" style="stroke: #d55e00"/>
    </defs>
    <g clip-path="url(#p86827bc8a8)">
     <use xlink:href="#m86203cf93a" x="108.036348" y="52.907161" style="fill: #d55e00; stroke: #d55e00"/>
    </g>
   </g>
   <g id="PathCollection_5">
    <g clip-path="url(#p86827bc8a8)">
     <use xlink:href="#m550569dded" x="209.876642" y="68.404783" style="fill: #0072b2; stroke: #0072b2"/>
    </g>
   </g>
   <g id="PathCollection_6">
    <g clip-path="url(#p86827bc8a8)">
     <use xlink:href="#ma11e6b9dfb" x="209.876642" y="72.279189" style="fill: #d55e00; stroke: #d55e00; stroke-width: 1.5"/>
    </g>
   </g>
   <g id="PathCollection_7">
    <g clip-path="url(#p86827bc8a8)">
     <use xlink:href="#m550569dded" x="72.175293" y="87.776811" style="fill: #0072b2; stroke: #0072b2"/>
    </g>
   </g>
   <g id="PathCollection_8">
    <g clip-path="url(#p86827bc8a8)">
     <use xlink:href="#m86203cf93a" x="90.935347" y="91.651217" style="fill: #d55e00; stroke: #d55e00"/>
    </g>
   </g>
   <g id="PathCollection_9">
    <g clip-path="url(#p86827bc8a8)">
     <use xlink:href="#m550569dded" x="209.876642" y="107.148839" style="fill: #0072b2; stroke: #0072b2"/>
    </g>
   </g>
   <g id="PathCollection_10">
    <g clip-path="url(#p86827bc8a8)">
     <use xlink:href="#ma11e6b9dfb" x="209.876642" y="111.023245" style="fill: #d55e00; stroke: #d55e00; stroke-width: 1.5"/>
    </g>
   </g>
   <g id="PathCollection_11">
    <g clip-path="url(#p86827bc8a8)">
     <use xlink:href="#m550569dded" x="62.859075" y="126.520867" style="fill: #0072b2; stroke: #0072b2"/>
    </g>
   </g>
   <g id="PathCollection_12">
    <g clip-path="url(#p86827bc8a8)">
     <use xlink:href="#m86203cf93a" x="89.914391" y="130.395273" style="fill: #d55e00; stroke: #d55e00"/>
    </g>
   </g>
   <g id="PathCollection_13"/>
   <g id="PathCollection_14"/>
   <g id="PathCollection_15"/>
   <g id="matplotlib.axis_1">
    <g id="xtick_1">
     <g id="line2d_1">
      <path d="M 52.649522 135.432 
L 52.649522 24.624 
" clip-path="url(#p86827bc8a8)" style="fill: none; stroke: #b0b0b0; stroke-opacity: 0.2; stroke-width: 0.8; stroke-linecap: square"/>
     </g>
     <g id="line2d_2">
      <defs>
       <path id="mdde28c3371" d="M 0 0 
L 0 3.5 
" style="stroke: #000000; stroke-width: 0.8"/>
      </defs>
      <g>
       <use xlink:href="#mdde28c3371" x="52.649522" y="135.432" style="stroke: #000000; stroke-width: 0.8"/>
      </g>
     </g>
     <g id="text_1">
      <text style="font-size: 8px; font-family: 'Liberation Serif', serif; text-anchor: middle" x="52.649522" y="147.98325" transform="rotate(-0 52.649522 147.98325)">752</text>
     </g>
    </g>
    <g id="xtick_2">
     <g id="line2d_3">
      <path d="M 108.036348 135.432 
L 108.036348 24.624 
" clip-path="url(#p86827bc8a8)" style="fill: none; stroke: #b0b0b0; stroke-opacity: 0.2; stroke-width: 0.8; stroke-linecap: square"/>
     </g>
     <g id="line2d_4">
      <g>
       <use xlink:href="#mdde28c3371" x="108.036348" y="135.432" style="stroke: #000000; stroke-width: 0.8"/>
      </g>
     </g>
     <g id="text_2">
      <text style="font-size: 8px; font-family: 'Liberation Serif', serif; text-anchor: middle" x="108.036348" y="147.98325" transform="rotate(-0 108.036348 147.98325)">1186</text>
     </g>
    </g>
    <g id="xtick_3">
     <g id="line2d_5">
      <path d="M 209.876642 135.432 
L 209.876642 24.624 
" clip-path="url(#p86827bc8a8)" style="fill: none; stroke: #b0b0b0; stroke-opacity: 0.2; stroke-width: 0.8; stroke-linecap: square"/>
     </g>
     <g id="line2d_6">
      <g>
       <use xlink:href="#mdde28c3371" x="209.876642" y="135.432" style="stroke: #000000; stroke-width: 0.8"/>
      </g>
     </g>
     <g id="text_3">
      <text style="font-size: 8px; font-family: 'Liberation Serif', serif; text-anchor: middle" x="209.876642" y="147.98325" transform="rotate(-0 209.876642 147.98325)">1984</text>
     </g>
    </g>
    <g id="text_4">
     <text style="font-size: 9px; font-family: 'Liberation Serif', serif; text-anchor: middle" x="122.584962" y="159.932156" transform="rotate(-0 122.584962 159.932156)">Tokens on the same sampled trajectory</text>
    </g>
   </g>
   <g id="matplotlib.axis_2">
    <g id="ytick_1">
     <g id="line2d_7">
      <defs>
       <path id="m991073ea50" d="M 0 0 
L -3.5 0 
" style="stroke: #000000; stroke-width: 0.8"/>
      </defs>
      <g>
       <use xlink:href="#m991073ea50" x="26.8704" y="31.59793" style="stroke: #000000; stroke-width: 0.8"/>
      </g>
     </g>
     <g id="text_5">
      <text style="font-size: 8px; font-family: 'Liberation Serif', serif; text-anchor: end" x="19.8704" y="34.373555" transform="rotate(-0 19.8704 34.373555)">c0</text>
     </g>
    </g>
    <g id="ytick_2">
     <g id="line2d_8">
      <g>
       <use xlink:href="#m991073ea50" x="26.8704" y="50.969958" style="stroke: #000000; stroke-width: 0.8"/>
      </g>
     </g>
     <g id="text_6">
      <text style="font-size: 8px; font-family: 'Liberation Serif', serif; text-anchor: end" x="19.8704" y="53.745583" transform="rotate(-0 19.8704 53.745583)">c1</text>
     </g>
    </g>
    <g id="ytick_3">
     <g id="line2d_9">
      <g>
       <use xlink:href="#m991073ea50" x="26.8704" y="70.341986" style="stroke: #000000; stroke-width: 0.8"/>
      </g>
     </g>
     <g id="text_7">
      <text style="font-size: 8px; font-family: 'Liberation Serif', serif; text-anchor: end" x="19.8704" y="73.117611" transform="rotate(-0 19.8704 73.117611)">c2</text>
     </g>
    </g>
    <g id="ytick_4">
     <g id="line2d_10">
      <g>
       <use xlink:href="#m991073ea50" x="26.8704" y="89.714014" style="stroke: #000000; stroke-width: 0.8"/>
      </g>
     </g>
     <g id="text_8">
      <text style="font-size: 8px; font-family: 'Liberation Serif', serif; text-anchor: end" x="19.8704" y="92.489639" transform="rotate(-0 19.8704 92.489639)">c3</text>
     </g>
    </g>
    <g id="ytick_5">
     <g id="line2d_11">
      <g>
       <use xlink:href="#m991073ea50" x="26.8704" y="109.086042" style="stroke: #000000; stroke-width: 0.8"/>
      </g>
     </g>
     <g id="text_9">
      <text style="font-size: 8px; font-family: 'Liberation Serif', serif; text-anchor: end" x="19.8704" y="111.861667" transform="rotate(-0 19.8704 111.861667)">c4</text>
     </g>
    </g>
    <g id="ytick_6">
     <g id="line2d_12">
      <g>
       <use xlink:href="#m991073ea50" x="26.8704" y="128.45807" style="stroke: #000000; stroke-width: 0.8"/>
      </g>
     </g>
     <g id="text_10">
      <text style="font-size: 8px; font-family: 'Liberation Serif', serif; text-anchor: end" x="19.8704" y="131.233695" transform="rotate(-0 19.8704 131.233695)">c5</text>
     </g>
    </g>
   </g>
   <g id="line2d_13">
    <path d="M 66.687658 31.59793 
L 209.876642 31.59793 
" clip-path="url(#p86827bc8a8)" style="fill: none; stroke: #999999; stroke-linecap: square"/>
   </g>
   <g id="line2d_14">
    <path d="M 52.649522 50.969958 
L 108.036348 50.969958 
" clip-path="url(#p86827bc8a8)" style="fill: none; stroke: #999999; stroke-linecap: square"/>
   </g>
   <g id="line2d_15">
    <path d="M 209.876642 70.341986 
L 209.876642 70.341986 
" clip-path="url(#p86827bc8a8)" style="fill: none; stroke: #999999; stroke-linecap: square"/>
   </g>
   <g id="line2d_16">
    <path d="M 72.175293 89.714014 
L 90.935347 89.714014 
" clip-path="url(#p86827bc8a8)" style="fill: none; stroke: #999999; stroke-linecap: square"/>
   </g>
   <g id="line2d_17">
    <path d="M 209.876642 109.086042 
L 209.876642 109.086042 
" clip-path="url(#p86827bc8a8)" style="fill: none; stroke: #999999; stroke-linecap: square"/>
   </g>
   <g id="line2d_18">
    <path d="M 62.859075 128.45807 
L 89.914391 128.45807 
" clip-path="url(#p86827bc8a8)" style="fill: none; stroke: #999999; stroke-linecap: square"/>
   </g>
   <g id="patch_3">
    <path d="M 26.8704 135.432 
L 26.8704 24.624 
" style="fill: none; stroke: #000000; stroke-width: 0.8; stroke-linejoin: miter; stroke-linecap: square"/>
   </g>
   <g id="patch_4">
    <path d="M 26.8704 135.432 
L 218.299523 135.432 
" style="fill: none; stroke: #000000; stroke-width: 0.8; stroke-linejoin: miter; stroke-linecap: square"/>
   </g>
   <g id="text_11">
    <text style="font-size: 10px; font-family: 'Liberation Serif', serif; text-anchor: middle" x="122.584962" y="18.624" transform="rotate(-0 122.584962 18.624)">(a) Fixed and first-complete boundaries</text>
   </g>
   <g id="legend_1">
    <g id="PathCollection_16">
     <defs>
      <path id="m48391788c3" d="M -3 3 
L 3 3 
L 3 -3 
L -3 -3 
z
" style="stroke: #0072b2"/>
     </defs>
     <g>
      <use xlink:href="#m48391788c3" x="89.392462" y="170.50976" style="fill: #0072b2; stroke: #0072b2"/>
     </g>
    </g>
    <g id="text_12">
     <text style="font-size: 8px; font-family: 'Liberation Serif', serif; text-anchor: start" x="103.792462" y="172.60976" transform="rotate(-0 103.792462 172.60976)">Fixed, incomplete</text>
    </g>
    <g id="PathCollection_17">
     <defs>
      <path id="mdf322c4a94" d="M 0 3 
C 0.795609 3 1.55874 2.683901 2.12132 2.12132 
C 2.683901 1.55874 3 0.795609 3 0 
C 3 -0.795609 2.683901 -1.55874 2.12132 -2.12132 
C 1.55874 -2.683901 0.795609 -3 0 -3 
C -0.795609 -3 -1.55874 -2.683901 -2.12132 -2.12132 
C -2.683901 -1.55874 -3 -0.795609 -3 0 
C -3 0.795609 -2.683901 1.55874 -2.12132 2.12132 
C -1.55874 2.683901 -0.795609 3 0 3 
z
" style="stroke: #d55e00"/>
     </defs>
     <g>
      <use xlink:href="#mdf322c4a94" x="89.392462" y="181.81351" style="fill: #d55e00; stroke: #d55e00"/>
     </g>
    </g>
    <g id="text_13">
     <text style="font-size: 8px; font-family: 'Liberation Serif', serif; text-anchor: start" x="103.792462" y="183.91351" transform="rotate(-0 103.792462 183.91351)">Stopped, delivered</text>
    </g>
    <g id="PathCollection_18">
     <defs>
      <path id="ma9b5665ed7" d="M -3 3 
L 3 -3 
M -3 -3 
L 3 3 
" style="stroke: #d55e00; stroke-width: 1.5"/>
     </defs>
     <g>
      <use xlink:href="#ma9b5665ed7" x="89.392462" y="193.11726" style="fill: #d55e00; stroke: #d55e00; stroke-width: 1.5"/>
     </g>
    </g>
    <g id="text_14">
     <text style="font-size: 8px; font-family: 'Liberation Serif', serif; text-anchor: start" x="103.792462" y="195.21726" transform="rotate(-0 103.792462 195.21726)">Stopped, abort</text>
    </g>
   </g>
  </g>
  <g id="axes_2">
   <g id="patch_5">
    <path d="M 279.140693 135.432 
L 445.6008 135.432 
L 445.6008 24.624 
L 279.140693 24.624 
z
" style="fill: #ffffff"/>
   </g>
   <g id="patch_6">
    <path d="M 282.469895 26.4708 
L 331.298193 26.4708 
L 331.298193 41.2452 
L 282.469895 41.2452 
z
" clip-path="url(#p427aa50cdb)" style="fill: #eeeeee; stroke: #aaaaaa; stroke-width: 0.4; stroke-linejoin: miter"/>
   </g>
   <g id="patch_7">
    <path d="M 337.956597 26.4708 
L 386.784895 26.4708 
L 386.784895 41.2452 
L 337.956597 41.2452 
z
" clip-path="url(#p427aa50cdb)" style="fill: #eeeeee; stroke: #aaaaaa; stroke-width: 0.4; stroke-linejoin: miter"/>
   </g>
   <g id="patch_8">
    <path d="M 393.4433 26.4708 
L 442.271598 26.4708 
L 442.271598 41.2452 
L 393.4433 41.2452 
z
" clip-path="url(#p427aa50cdb)" style="fill: #eeeeee; stroke: #aaaaaa; stroke-width: 0.4; stroke-linejoin: miter"/>
   </g>
   <g id="patch_9">
    <path d="M 282.469895 44.9388 
L 331.298193 44.9388 
L 331.298193 59.7132 
L 282.469895 59.7132 
z
" clip-path="url(#p427aa50cdb)" style="fill: #dcefe6; stroke: #aaaaaa; stroke-width: 0.4; stroke-linejoin: miter"/>
   </g>
   <g id="patch_10">
    <path d="M 337.956597 44.9388 
L 386.784895 44.9388 
L 386.784895 59.7132 
L 337.956597 59.7132 
z
" clip-path="url(#p427aa50cdb)" style="fill: #f9e2d8; stroke: #aaaaaa; stroke-width: 0.4; stroke-linejoin: miter"/>
   </g>
   <g id="patch_11">
    <path d="M 393.4433 44.9388 
L 442.271598 44.9388 
L 442.271598 59.7132 
L 393.4433 59.7132 
z
" clip-path="url(#p427aa50cdb)" style="fill: #f9e2d8; stroke: #aaaaaa; stroke-width: 0.4; stroke-linejoin: miter"/>
   </g>
   <g id="patch_12">
    <path d="M 282.469895 63.4068 
L 331.298193 63.4068 
L 331.298193 78.1812 
L 282.469895 78.1812 
z
" clip-path="url(#p427aa50cdb)" style="fill: #eeeeee; stroke: #aaaaaa; stroke-width: 0.4; stroke-linejoin: miter"/>
   </g>
   <g id="patch_13">
    <path d="M 337.956597 63.4068 
L 386.784895 63.4068 
L 386.784895 78.1812 
L 337.956597 78.1812 
z
" clip-path="url(#p427aa50cdb)" style="fill: #eeeeee; stroke: #aaaaaa; stroke-width: 0.4; stroke-linejoin: miter"/>
   </g>
   <g id="patch_14">
    <path d="M 393.4433 63.4068 
L 442.271598 63.4068 
L 442.271598 78.1812 
L 393.4433 78.1812 
z
" clip-path="url(#p427aa50cdb)" style="fill: #eeeeee; stroke: #aaaaaa; stroke-width: 0.4; stroke-linejoin: miter"/>
   </g>
   <g id="patch_15">
    <path d="M 282.469895 81.8748 
L 331.298193 81.8748 
L 331.298193 96.6492 
L 282.469895 96.6492 
z
" clip-path="url(#p427aa50cdb)" style="fill: #dcefe6; stroke: #aaaaaa; stroke-width: 0.4; stroke-linejoin: miter"/>
   </g>
   <g id="patch_16">
    <path d="M 337.956597 81.8748 
L 386.784895 81.8748 
L 386.784895 96.6492 
L 337.956597 96.6492 
z
" clip-path="url(#p427aa50cdb)" style="fill: #dcefe6; stroke: #aaaaaa; stroke-width: 0.4; stroke-linejoin: miter"/>
   </g>
   <g id="patch_17">
    <path d="M 393.4433 81.8748 
L 442.271598 81.8748 
L 442.271598 96.6492 
L 393.4433 96.6492 
z
" clip-path="url(#p427aa50cdb)" style="fill: #f9e2d8; stroke: #aaaaaa; stroke-width: 0.4; stroke-linejoin: miter"/>
   </g>
   <g id="patch_18">
    <path d="M 282.469895 100.3428 
L 331.298193 100.3428 
L 331.298193 115.1172 
L 282.469895 115.1172 
z
" clip-path="url(#p427aa50cdb)" style="fill: #eeeeee; stroke: #aaaaaa; stroke-width: 0.4; stroke-linejoin: miter"/>
   </g>
   <g id="patch_19">
    <path d="M 337.956597 100.3428 
L 386.784895 100.3428 
L 386.784895 115.1172 
L 337.956597 115.1172 
z
" clip-path="url(#p427aa50cdb)" style="fill: #eeeeee; stroke: #aaaaaa; stroke-width: 0.4; stroke-linejoin: miter"/>
   </g>
   <g id="patch_20">
    <path d="M 393.4433 100.3428 
L 442.271598 100.3428 
L 442.271598 115.1172 
L 393.4433 115.1172 
z
" clip-path="url(#p427aa50cdb)" style="fill: #eeeeee; stroke: #aaaaaa; stroke-width: 0.4; stroke-linejoin: miter"/>
   </g>
   <g id="patch_21">
    <path d="M 282.469895 118.8108 
L 331.298193 118.8108 
L 331.298193 133.5852 
L 282.469895 133.5852 
z
" clip-path="url(#p427aa50cdb)" style="fill: #dcefe6; stroke: #aaaaaa; stroke-width: 0.4; stroke-linejoin: miter"/>
   </g>
   <g id="patch_22">
    <path d="M 337.956597 118.8108 
L 386.784895 118.8108 
L 386.784895 133.5852 
L 337.956597 133.5852 
z
" clip-path="url(#p427aa50cdb)" style="fill: #f9e2d8; stroke: #aaaaaa; stroke-width: 0.4; stroke-linejoin: miter"/>
   </g>
   <g id="patch_23">
    <path d="M 393.4433 118.8108 
L 442.271598 118.8108 
L 442.271598 133.5852 
L 393.4433 133.5852 
z
" clip-path="url(#p427aa50cdb)" style="fill: #f9e2d8; stroke: #aaaaaa; stroke-width: 0.4; stroke-linejoin: miter"/>
   </g>
   <g id="matplotlib.axis_3">
    <g id="xtick_4">
     <g id="line2d_19"/>
     <g id="text_15">
      <text style="font-size: 8px; font-family: 'Liberation Serif', serif; text-anchor: middle" x="306.884044" y="144.48325" transform="rotate(-0 306.884044 144.48325)">First end</text>
     </g>
    </g>
    <g id="xtick_5">
     <g id="line2d_20"/>
     <g id="text_16">
      <text style="font-size: 8px; font-family: 'Liberation Serif', serif; text-anchor: middle" x="362.370746" y="144.48325" transform="rotate(-0 362.370746 144.48325)">Local filler</text>
     </g>
    </g>
    <g id="xtick_6">
     <g id="line2d_21"/>
     <g id="text_17">
      <text style="font-size: 8px; font-family: 'Liberation Serif', serif; text-anchor: middle" x="417.857449" y="144.48325" transform="rotate(-0 417.857449 144.48325)">Replay</text>
     </g>
    </g>
   </g>
   <g id="matplotlib.axis_4">
    <g id="ytick_7">
     <g id="line2d_22"/>
     <g id="text_18">
      <text style="font-size: 8px; font-family: 'Liberation Serif', serif; text-anchor: end" x="275.640693" y="36.633625" transform="rotate(-0 275.640693 36.633625)">c0</text>
     </g>
    </g>
    <g id="ytick_8">
     <g id="line2d_23"/>
     <g id="text_19">
      <text style="font-size: 8px; font-family: 'Liberation Serif', serif; text-anchor: end" x="275.640693" y="55.101625" transform="rotate(-0 275.640693 55.101625)">c1</text>
     </g>
    </g>
    <g id="ytick_9">
     <g id="line2d_24"/>
     <g id="text_20">
      <text style="font-size: 8px; font-family: 'Liberation Serif', serif; text-anchor: end" x="275.640693" y="73.569625" transform="rotate(-0 275.640693 73.569625)">c2</text>
     </g>
    </g>
    <g id="ytick_10">
     <g id="line2d_25"/>
     <g id="text_21">
      <text style="font-size: 8px; font-family: 'Liberation Serif', serif; text-anchor: end" x="275.640693" y="92.037625" transform="rotate(-0 275.640693 92.037625)">c3</text>
     </g>
    </g>
    <g id="ytick_11">
     <g id="line2d_26"/>
     <g id="text_22">
      <text style="font-size: 8px; font-family: 'Liberation Serif', serif; text-anchor: end" x="275.640693" y="110.505625" transform="rotate(-0 275.640693 110.505625)">c4</text>
     </g>
    </g>
    <g id="ytick_12">
     <g id="line2d_27"/>
     <g id="text_23">
      <text style="font-size: 8px; font-family: 'Liberation Serif', serif; text-anchor: end" x="275.640693" y="128.973625" transform="rotate(-0 275.640693 128.973625)">c5</text>
     </g>
    </g>
   </g>
   <g id="text_24">
    <text style="font-size: 9px; font-family: 'Liberation Serif', serif; text-anchor: middle" x="306.884044" y="36.022219" transform="rotate(-0 306.884044 36.022219)">Abort</text>
   </g>
   <g id="text_25">
    <text style="font-size: 9px; font-family: 'Liberation Serif', serif; text-anchor: middle" x="362.370746" y="36.022219" transform="rotate(-0 362.370746 36.022219)">Abort</text>
   </g>
   <g id="text_26">
    <text style="font-size: 9px; font-family: 'Liberation Serif', serif; text-anchor: middle" x="417.857449" y="36.022219" transform="rotate(-0 417.857449 36.022219)">Abort</text>
   </g>
   <g id="text_27">
    <text style="font-size: 9px; font-family: 'Liberation Serif', serif; text-anchor: middle" x="306.884044" y="54.490219" transform="rotate(-0 306.884044 54.490219)">Pass</text>
   </g>
   <g id="text_28">
    <text style="font-size: 9px; font-family: 'Liberation Serif', serif; text-anchor: middle" x="362.370746" y="54.490219" transform="rotate(-0 362.370746 54.490219)">Fail</text>
   </g>
   <g id="text_29">
    <text style="font-size: 9px; font-family: 'Liberation Serif', serif; text-anchor: middle" x="417.857449" y="54.490219" transform="rotate(-0 417.857449 54.490219)">Fail</text>
   </g>
   <g id="text_30">
    <text style="font-size: 9px; font-family: 'Liberation Serif', serif; text-anchor: middle" x="306.884044" y="72.958219" transform="rotate(-0 306.884044 72.958219)">Abort</text>
   </g>
   <g id="text_31">
    <text style="font-size: 9px; font-family: 'Liberation Serif', serif; text-anchor: middle" x="362.370746" y="72.958219" transform="rotate(-0 362.370746 72.958219)">Abort</text>
   </g>
   <g id="text_32">
    <text style="font-size: 9px; font-family: 'Liberation Serif', serif; text-anchor: middle" x="417.857449" y="72.958219" transform="rotate(-0 417.857449 72.958219)">Abort</text>
   </g>
   <g id="text_33">
    <text style="font-size: 9px; font-family: 'Liberation Serif', serif; text-anchor: middle" x="306.884044" y="91.426219" transform="rotate(-0 306.884044 91.426219)">Pass</text>
   </g>
   <g id="text_34">
    <text style="font-size: 9px; font-family: 'Liberation Serif', serif; text-anchor: middle" x="362.370746" y="91.426219" transform="rotate(-0 362.370746 91.426219)">Pass</text>
   </g>
   <g id="text_35">
    <text style="font-size: 9px; font-family: 'Liberation Serif', serif; text-anchor: middle" x="417.857449" y="91.426219" transform="rotate(-0 417.857449 91.426219)">Fail</text>
   </g>
   <g id="text_36">
    <text style="font-size: 9px; font-family: 'Liberation Serif', serif; text-anchor: middle" x="306.884044" y="109.894219" transform="rotate(-0 306.884044 109.894219)">Abort</text>
   </g>
   <g id="text_37">
    <text style="font-size: 9px; font-family: 'Liberation Serif', serif; text-anchor: middle" x="362.370746" y="109.894219" transform="rotate(-0 362.370746 109.894219)">Abort</text>
   </g>
   <g id="text_38">
    <text style="font-size: 9px; font-family: 'Liberation Serif', serif; text-anchor: middle" x="417.857449" y="109.894219" transform="rotate(-0 417.857449 109.894219)">Abort</text>
   </g>
   <g id="text_39">
    <text style="font-size: 9px; font-family: 'Liberation Serif', serif; text-anchor: middle" x="306.884044" y="128.362219" transform="rotate(-0 306.884044 128.362219)">Pass</text>
   </g>
   <g id="text_40">
    <text style="font-size: 9px; font-family: 'Liberation Serif', serif; text-anchor: middle" x="362.370746" y="128.362219" transform="rotate(-0 362.370746 128.362219)">Fail</text>
   </g>
   <g id="text_41">
    <text style="font-size: 9px; font-family: 'Liberation Serif', serif; text-anchor: middle" x="417.857449" y="128.362219" transform="rotate(-0 417.857449 128.362219)">Fail</text>
   </g>
   <g id="text_42">
    <text style="font-size: 10px; font-family: 'Liberation Serif', serif; text-anchor: middle" x="362.370746" y="18.624" transform="rotate(-0 362.370746 18.624)">(b) B-stop public predicates</text>
   </g>
  </g>
 </g>
 <defs>
  <clipPath id="p86827bc8a8">
   <rect x="26.8704" y="24.624" width="191.429123" height="110.808"/>
  </clipPath>
  <clipPath id="p427aa50cdb">
   <rect x="279.140693" y="24.624" width="166.460107" height="110.808"/>
  </clipPath>
 </defs>
</svg>
