<?xml version="1.0" encoding="utf-8" standalone="no"?>
<!DOCTYPE svg PUBLIC "-//W3C//DTD SVG 1.1//EN"
  "http://www.w3.org/Graphics/SVG/1.1/DTD/svg11.dtd">
<svg xmlns:xlink="http://www.w3.org/1999/xlink" width="447.84pt" height="165.6pt" viewBox="0 0 447.84 165.6" xmlns="http://www.w3.org/2000/svg" version="1.1">
 <metadata>
  <rdf:RDF xmlns:dc="http://purl.org/dc/elements/1.1/" xmlns:cc="http://creativecommons.org/ns#" xmlns:rdf="http://www.w3.org/1999/02/22-rdf-syntax-ns#">
   <cc:Work>
    <dc:type rdf:resource="http://purl.org/dc/dcmitype/StillImage"/>
    <dc:format>image/svg+xml</dc:format>
    <dc:creator>
     <cc:Agent>
      <dc:title>Scientific plotting script</dc:title>
     </cc:Agent>
    </dc:creator>
   </cc:Work>
  </rdf:RDF>
 </metadata>
 <defs>
  <style type="text/css">*{stroke-linejoin: round; stroke-linecap: butt}</style>
 </defs>
 <g id="figure_1">
  <g id="patch_1">
   <path d="M 0 165.6 
L 447.84 165.6 
L 447.84 0 
L 0 0 
z
" style="fill: #ffffff"/>
  </g>
  <g id="axes_1">
   <g id="patch_2">
    <path d="M 10.212991 64.13688 
L 80.351453 64.13688 
Q 83.43931 64.13688 83.43931 61.29684 
L 83.43931 32.085 
Q 83.43931 29.24496 80.351453 29.24496 
L 10.212991 29.24496 
Q 7.125134 29.24496 7.125134 32.085 
L 7.125134 61.29684 
Q 7.125134 64.13688 10.212991 64.13688 
z
" clip-path="url(#p3826a559bb)" style="fill: #eeeeee; stroke: #444444; stroke-width: 0.8; stroke-linejoin: miter"/>
   </g>
   <g id="patch_3">
    <path d="M 98.437471 64.13688 
L 172.987157 64.13688 
Q 176.075014 64.13688 176.075014 61.29684 
L 176.075014 32.085 
Q 176.075014 29.24496 172.987157 29.24496 
L 98.437471 29.24496 
Q 95.349614 29.24496 95.349614 32.085 
L 95.349614 61.29684 
Q 95.349614 64.13688 98.437471 64.13688 
z
" clip-path="url(#p3826a559bb)" style="fill: #dceaf3; stroke: #444444; stroke-width: 0.8; stroke-linejoin: miter"/>
   </g>
   <g id="patch_4">
    <path d="M 192.396542 64.13688 
L 264.740616 64.13688 
Q 267.828473 64.13688 267.828473 61.29684 
L 267.828473 32.085 
Q 267.828473 29.24496 264.740616 29.24496 
L 192.396542 29.24496 
Q 189.308686 29.24496 189.308686 32.085 
L 189.308686 61.29684 
Q 189.308686 64.13688 192.396542 64.13688 
z
" clip-path="url(#p3826a559bb)" style="fill: #dceaf3; stroke: #444444; stroke-width: 0.8; stroke-linejoin: miter"/>
   </g>
   <g id="patch_5">
    <path d="M 285.032246 64.13688 
L 348.553872 64.13688 
Q 351.641729 64.13688 351.641729 61.29684 
L 351.641729 32.085 
Q 351.641729 29.24496 348.553872 29.24496 
L 285.032246 29.24496 
Q 281.94439 29.24496 281.94439 32.085 
L 281.94439 61.29684 
Q 281.94439 64.13688 285.032246 64.13688 
z
" clip-path="url(#p3826a559bb)" style="fill: #ffffff; stroke: #444444; stroke-width: 0.8; stroke-linejoin: miter"/>
   </g>
   <g id="patch_6">
    <path d="M 369.727747 70.22268 
L 437.660597 70.22268 
Q 440.748454 70.22268 440.748454 67.38264 
L 440.748454 27.21636 
Q 440.748454 24.37632 437.660597 24.37632 
L 369.727747 24.37632 
Q 366.63989 24.37632 366.63989 27.21636 
L 366.63989 67.38264 
Q 366.63989 70.22268 369.727747 70.22268 
z
" clip-path="url(#p3826a559bb)" style="fill: #dceaf3; stroke: #444444; stroke-width: 0.8; stroke-linejoin: miter"/>
   </g>
   <g id="patch_7">
    <path d="M 226.362967 157.45248 
L 333.996833 157.45248 
Q 337.08469 157.45248 337.08469 154.61244 
L 337.08469 108.36036 
Q 337.08469 105.52032 333.996833 105.52032 
L 226.362967 105.52032 
Q 223.27511 105.52032 223.27511 108.36036 
L 223.27511 154.61244 
Q 223.27511 157.45248 226.362967 157.45248 
z
" clip-path="url(#p3826a559bb)" style="fill: #fff0da; stroke: #444444; stroke-width: 0.8; stroke-linejoin: miter"/>
   </g>
   <g id="patch_8">
    <path d="M 356.494075 157.45248 
L 437.660597 157.45248 
Q 440.748454 157.45248 440.748454 154.61244 
L 440.748454 108.36036 
Q 440.748454 105.52032 437.660597 105.52032 
L 356.494075 105.52032 
Q 353.406218 105.52032 353.406218 108.36036 
L 353.406218 154.61244 
Q 353.406218 157.45248 356.494075 157.45248 
z
" clip-path="url(#p3826a559bb)" style="fill: #dcefe6; stroke: #444444; stroke-width: 0.8; stroke-linejoin: miter"/>
   </g>
   <g id="text_1">
    <text style="font-size: 9px; font-family: 'Liberation Serif', serif" transform="translate(17.664175 44.137029)">Binary payload</text>
    <text style="font-size: 9px; font-family: 'Liberation Serif', serif" transform="translate(19.756675 53.573248)">+ inner record</text>
   </g>
   <g id="text_2">
    <text style="font-size: 9px; font-family: 'Liberation Serif', serif" transform="translate(103.592861 44.111717)">HPKE encryption</text>
    <text style="font-size: 9px; font-family: 'Liberation Serif', serif" transform="translate(99.975283 53.547936)">recipient public key</text>
   </g>
   <g id="text_3">
    <text style="font-size: 9px; font-family: 'Liberation Serif', serif" transform="translate(194.827017 44.137029)">Public LLM codec</text>
    <text style="font-size: 9px; font-family: 'Liberation Serif', serif" transform="translate(193.459439 53.547936)">encrypted envelope</text>
   </g>
   <g id="text_4">
    <text style="font-size: 9px; font-family: 'Liberation Serif', serif" transform="translate(291.423606 44.137029)">Actual UTF-8</text>
    <text style="font-size: 9px; font-family: 'Liberation Serif', serif" transform="translate(283.426262 53.547936)">message boundary</text>
   </g>
   <g id="patch_9">
    <path d="M 85.880883 46.2852 
Q 89.396273 46.2852 91.793629 46.2852 
" style="fill: none; stroke: #444444; stroke-linecap: round"/>
    <path d="M 88.193629 44.4852 
L 91.793629 46.2852 
L 88.193629 48.0852 
" style="fill: none; stroke: #444444; stroke-linecap: round"/>
   </g>
   <g id="patch_10">
    <path d="M 178.515403 46.2852 
Q 182.691903 46.2852 185.750369 46.2852 
" style="fill: none; stroke: #444444; stroke-linecap: round"/>
    <path d="M 182.150369 44.4852 
L 185.750369 46.2852 
L 182.150369 48.0852 
" style="fill: none; stroke: #444444; stroke-linecap: round"/>
   </g>
   <g id="patch_11">
    <path d="M 270.269508 46.2852 
Q 274.886704 46.2852 278.385865 46.2852 
" style="fill: none; stroke: #444444; stroke-linecap: round"/>
    <path d="M 274.785865 44.4852 
L 278.385865 46.2852 
L 274.785865 48.0852 
" style="fill: none; stroke: #444444; stroke-linecap: round"/>
   </g>
   <g id="text_5">
    <text style="font-size: 9px; font-family: 'Liberation Serif', serif" transform="translate(383.451906 40.052812)">Retokenize</text>
    <text style="font-size: 9px; font-family: 'Liberation Serif', serif" transform="translate(373.329719 49.463719)">public extraction</text>
    <text style="font-size: 9px; font-family: 'Liberation Serif', serif" transform="translate(371.459406 58.874625)">(no encoder state)</text>
   </g>
   <g id="patch_12">
    <path d="M 354.085133 46.2852 
Q 359.140861 46.2852 363.078554 46.2852 
" style="fill: none; stroke: #444444; stroke-linecap: round"/>
    <path d="M 359.478554 44.4852 
L 363.078554 46.2852 
L 359.478554 48.0852 
" style="fill: none; stroke: #444444; stroke-linecap: round"/>
   </g>
   <g id="text_6">
    <text style="font-size: 9px; font-family: 'Liberation Serif', serif" transform="translate(239.908416 119.454103)">PUBLIC OBSERVER</text>
    <text style="font-size: 9px; font-family: 'Liberation Serif', serif" transform="translate(239.241853 128.974697)">scores, stopping, filler,</text>
    <text style="font-size: 9px; font-family: 'Liberation Serif', serif" transform="translate(238.613259 138.410916)">canonical replay, KEM</text>
    <text style="font-size: 9px; font-family: 'Liberation Serif', serif" transform="translate(248.063963 147.847134)">No authentication</text>
   </g>
   <g id="text_7">
    <text style="font-size: 9px; font-family: 'Liberation Serif', serif" transform="translate(356.034524 119.508947)">PRIVATE RECEIVER</text>
    <text style="font-size: 9px; font-family: 'Liberation Serif', serif" transform="translate(361.202492 128.919853)">HPKE open with sk</text>
    <text style="font-size: 9px; font-family: 'Liberation Serif', serif" transform="translate(374.211711 138.330759)">length check</text>
    <text style="font-size: 9px; font-family: 'Liberation Serif', serif" transform="translate(361.092102 147.766978)">payload or rejection</text>
   </g>
   <g id="patch_13">
    <path d="M 386.346651 71.225131 
Q 333.114615 87.871492 280.949654 104.184164 
" style="fill: none; stroke: #444444; stroke-linecap: round"/>
    <path d="M 284.922802 104.827666 
L 280.949654 104.184164 
L 283.848345 101.391747 
" style="fill: none; stroke: #444444; stroke-linecap: round"/>
   </g>
   <g id="patch_14">
    <path d="M 409.595369 72.493315 
Q 403.694687 87.870157 398.194559 102.203181 
" style="fill: none; stroke: #444444; stroke-linecap: round"/>
    <path d="M 401.16483 99.487028 
L 398.194559 102.203181 
L 397.803799 98.197272 
" style="fill: none; stroke: #444444; stroke-linecap: round"/>
   </g>
   <g id="text_8">
    <text style="font-size: 9px; font-family: 'Liberation Serif', serif" transform="translate(8.889624 98.448666)">Public at all endpoints: model, tokenizer, context,</text>
    <text style="font-size: 9px; font-family: 'Liberation Serif', serif" transform="translate(8.889624 107.969259)">profile, size class when used, and recipient public key.</text>
   </g>
   <g id="text_9">
    <text style="font-size: 9px; font-family: 'Liberation Serif', serif" transform="translate(8.889624 141.036609)">Only the receiver has the private key.</text>
    <text style="font-size: 9px; font-family: 'Liberation Serif', serif" transform="translate(8.889624 150.582516)">Public format acceptance is not authenticated recovery.</text>
   </g>
  </g>
 </g>
 <defs>
  <clipPath id="p3826a559bb">
   <rect x="4.4784" y="1.656" width="441.1224" height="162.288"/>
  </clipPath>
 </defs>
</svg>
